<?xml version="1.0" encoding="utf-8"?>
<!-- Generator: Adobe Illustrator 23.1.0, SVG Export Plug-In . SVG Version: 6.00 Build 0)  -->
<svg version="1.1" id="Layer_1" xmlns="http://www.w3.org/2000/svg" xmlns:xlink="http://www.w3.org/1999/xlink" x="0px" y="0px"
	 viewBox="0 0 64 64" style="enable-background:new 0 0 64 64;" xml:space="preserve">
<style type="text/css">
	.st0{fill:#D1D3D4;}
	.st1{fill:#603913;}
	.st2{fill:#A7A9AC;}
	.st3{fill:#C09EC9;}
	.st4{fill:#BCBEC0;}
	.st5{fill:#FFFFFF;}
	.st6{fill:#FBB040;}
	.st7{fill:#F7941D;}
	.st8{fill:#F5ACCC;}
	.st9{fill:#D7DF23;}
	.st10{fill:#A0DAE3;}
	.st11{fill:#00AEEF;}
	.st12{fill:#92278F;}
	.st13{fill:#E6E7E8;}
	.st14{fill:#ED1C24;}
	.st15{fill:#939598;}
	.st16{fill:#C2B59B;}
	.st17{fill:#3C2415;}
	.st18{fill:#C49A6C;}
	.st19{fill:#FDCE8F;}
	.st20{fill:#262262;}
	.st21{fill:#808285;}
	.st22{fill:#231F20;}
	.st23{fill:#BE1E2D;}
	.st24{fill:#FFFAC7;}
	.st25{fill:#27AAE1;}
	.st26{fill:#F1F2F2;}
	.st27{fill:#2BB673;}
	.st28{fill:#58595B;}
	.st29{fill:#00A79D;}
</style>
<g>
	<g>
		<path class="st28" d="M52.9,22.9C52.9,11.4,43.5,2,32,2c-11.5,0-20.9,9.4-20.9,20.9c0,4.9,1.7,9.5,4.6,13.1l5.4,8.7L32,62
			l10.9-17.4l5.4-8.7C51.2,32.4,52.9,27.8,52.9,22.9z"/>
		<path class="st1" d="M32,63L32,63c-0.3,0-0.7-0.2-0.8-0.5l-16.3-26c-3.1-3.9-4.8-8.6-4.8-13.6C10.1,10.8,19.9,1,32,1
			c12.1,0,21.9,9.8,21.9,21.9c0,5-1.7,9.7-4.8,13.6l-16.3,26C32.7,62.8,32.3,63,32,63z M32,3c-11,0-19.9,8.9-19.9,19.9
			c0,4.6,1.5,8.9,4.4,12.4c0,0,0,0.1,0.1,0.1L32,60.1l15.5-24.7c0,0,0-0.1,0.1-0.1c2.9-3.6,4.4-7.9,4.4-12.4C51.9,11.9,43,3,32,3z"
			/>
	</g>
	<g>
		<path class="st13" d="M48.4,23c0,8.9-7.2,16.1-16.1,16.1c-8.9,0-16.1-7.2-16.1-16.1c0-8.9,7.2-16.1,16.1-16.1
			C41.2,6.9,48.4,14.1,48.4,23z"/>
		<path class="st1" d="M32.3,40.1c-9.4,0-17.1-7.7-17.1-17.1S22.9,5.9,32.3,5.9S49.4,13.6,49.4,23S41.8,40.1,32.3,40.1z M32.3,7.9
			C24,7.9,17.2,14.7,17.2,23S24,38.1,32.3,38.1S47.4,31.4,47.4,23S40.7,7.9,32.3,7.9z"/>
	</g>
	<g>
		<g>
			<path class="st22" d="M29.3,16.5c-0.3-2.5-1.4-3.9-2.8-3.9c-1.4,0-2.4,1.7-2.8,3.9c-0.7,4,2.1,3.9,2.1,5.6c0,2.8,0,11.8,0,11.8
				c0,0.4,0.3,0.6,0.6,0.6c0.4,0,0.6-0.3,0.6-0.6c0,0,0-9.3,0-11.9C27.2,20.4,29.8,20.1,29.3,16.5z"/>
		</g>
		<g>
			<path class="st22" d="M35.2,12.5c-0.3,0-0.5,0.2-0.5,0.5v4.8h-0.9V13c0-0.3-0.2-0.5-0.5-0.5c-0.3,0-0.5,0.2-0.5,0.5v4.8h-0.9V13
				c0-0.3-0.2-0.5-0.5-0.5c-0.3,0-0.5,0.2-0.5,0.5v4.8v0.8v0.1h0c0,0.7,0.6,1.1,1.1,1.5c0.5,0.3,0.7,0.8,0.7,1.3c0,3,0,12.3,0,12.3
				c0,0.4,0.3,0.7,0.6,0.7c0.4,0,0.6-0.3,0.6-0.7c0,0,0-9.7,0-12.4c0-0.5,0.1-1,0.5-1.2c0.6-0.4,1.1-0.8,1.1-1.5h0V13
				C35.7,12.7,35.4,12.5,35.2,12.5z"/>
		</g>
		<g>
			<path class="st22" d="M39.1,12.5c-1.9,0-2.1,9.9-2.1,10.8c0,0.9,0.5,1.7,1.1,1.7h0.9c0,3.2,0,8.8,0,8.8c0,0.4,0.3,0.7,0.6,0.7
				c0.4,0,0.6-0.3,0.6-0.7V14.2C40.2,13.3,39.7,12.5,39.1,12.5z"/>
		</g>
	</g>
</g>
</svg>
